<?xml version="1.0" standalone="no"?>
<!DOCTYPE svg PUBLIC "-//W3C//DTD SVG 20010904//EN"
 "http://www.w3.org/TR/2001/REC-SVG-20010904/DTD/svg10.dtd">
<svg version="1.0" xmlns="http://www.w3.org/2000/svg"
 width="400.000000pt" height="400.000000pt" viewBox="0 0 400.000000 400.000000"
 preserveAspectRatio="xMidYMid meet">

<g transform="translate(0.000000,400.000000) scale(0.100000,-0.100000)"
fill="#ffffff" stroke="none">
<path d="M1785 3295 c-287 -62 -541 -278 -645 -548 -74 -190 -81 -412 -18
-607 122 -379 499 -639 893 -617 502 29 879 447 852 942 -13 230 -102 429
-263 587 -86 84 -136 120 -233 168 -141 70 -237 90 -410 89 -64 0 -143 -6
-176 -14z m353 -37 c262 -49 493 -230 608 -473 53 -115 74 -195 81 -320 14
-253 -69 -468 -252 -651 -208 -209 -486 -294 -771 -235 -332 68 -586 316 -665
648 -30 127 -23 321 16 443 49 151 118 263 230 369 201 191 478 272 753 219z"/>
<path d="M1503 2975 c-61 -26 -73 -62 -73 -222 0 -78 3 -148 6 -157 9 -22 33
-20 100 10 272 121 618 123 878 5 77 -35 101 -38 110 -15 3 9 6 79 6 157 0
162 -12 196 -75 223 -50 21 -904 20 -952 -1z"/>
<path d="M1828 2605 c-88 -17 -173 -47 -275 -99 -67 -33 -73 -39 -73 -67 0
-59 23 -175 47 -244 164 -454 711 -457 892 -4 27 68 39 117 55 237 l6 43 -103
50 c-57 27 -139 58 -183 70 -103 27 -264 33 -366 14z m249 -90 c64 -19 136
-82 170 -149 36 -69 39 -187 7 -257 -32 -70 -86 -123 -155 -154 -112 -50 -246
-25 -333 63 -59 58 -79 105 -84 200 -4 77 -2 87 26 145 67 136 216 197 369
152z"/>
<path d="M1949 2454 c-17 -21 0 -49 31 -49 31 0 48 28 31 49 -8 9 -21 16 -31
16 -10 0 -23 -7 -31 -16z"/>
<path d="M1804 2396 c-12 -31 0 -51 31 -51 27 0 30 3 30 30 0 25 -4 30 -28 33
-17 2 -29 -2 -33 -12z"/>
<path d="M2091 2396 c-9 -11 -10 -20 -1 -35 21 -40 79 -15 65 29 -7 24 -46 27
-64 6z"/>
<path d="M1935 2316 c-73 -32 -72 -136 3 -172 66 -31 137 17 135 92 -2 68 -74
109 -138 80z"/>
<path d="M1747 2264 c-12 -12 -8 -51 7 -63 24 -20 58 4 54 37 -2 20 -9 28 -28
30 -14 2 -29 0 -33 -4z"/>
<path d="M2157 2263 c-12 -11 -7 -50 7 -62 19 -16 56 2 56 27 0 32 -43 56 -63
35z"/>
<path d="M1800 2091 c0 -34 31 -51 56 -30 26 22 13 54 -23 57 -31 3 -33 1 -33
-27z"/>
<path d="M2091 2107 c-15 -18 -5 -44 20 -52 26 -9 51 13 47 39 -4 25 -49 34
-67 13z"/>
<path d="M1956 2057 c-36 -26 4 -84 42 -61 24 16 27 45 6 61 -10 7 -21 13 -24
13 -3 0 -14 -6 -24 -13z"/>
<path d="M2964 1325 c-8 -21 4 -35 32 -35 19 0 24 5 24 25 0 20 -5 25 -25 25
-14 0 -28 -7 -31 -15z"/>
<path d="M1933 1310 c-21 -9 -23 -16 -23 -89 0 -59 4 -84 16 -95 21 -21 58
-20 75 2 12 15 12 16 -2 5 -9 -7 -19 -10 -22 -6 -4 3 -7 48 -7 100 0 51 -3 93
-7 92 -5 0 -18 -4 -30 -9z"/>
<path d="M945 1254 c-29 -29 -15 -67 33 -89 23 -11 41 -24 39 -30 -6 -18 -48
-17 -68 1 -17 15 -19 15 -19 1 0 -21 60 -33 88 -18 47 25 34 85 -21 99 -39 10
-48 38 -15 45 22 4 22 4 1 6 -12 0 -29 -6 -38 -15z"/>
<path d="M1023 1262 c-8 -5 -8 -12 3 -26 13 -19 14 -19 14 7 0 30 0 30 -17 19z"/>
<path d="M1092 1259 c-30 -11 -27 -54 3 -54 16 0 20 6 18 28 -1 18 3 27 13 27
9 0 14 -11 14 -33 0 -30 -4 -34 -37 -43 -40 -10 -54 -34 -33 -59 14 -17 56
-20 65 -5 3 6 1 10 -4 10 -6 0 -11 11 -11 25 0 14 5 25 10 25 6 0 10 -10 10
-23 0 -13 5 -28 12 -35 15 -15 54 -16 63 -2 3 6 1 10 -4 10 -6 0 -11 21 -11
48 0 80 -39 109 -108 81z"/>
<path d="M1242 1201 c0 -38 -3 -74 -6 -80 -5 -7 6 -11 31 -11 l38 0 -3 50 c-3
35 1 58 13 76 9 14 19 23 22 20 3 -3 1 -12 -6 -19 -9 -11 -8 -17 4 -27 13 -11
19 -11 31 2 23 23 1 63 -29 53 -30 -9 -39 -9 -69 -2 l-26 7 0 -69z"/>
<path d="M1568 1259 c-10 -5 -18 -21 -18 -35 0 -21 4 -25 23 -22 17 2 22 9 20
31 -3 40 21 29 25 -11 3 -27 0 -32 -18 -32 -34 0 -60 -19 -60 -44 0 -23 17
-36 46 -36 9 0 14 11 14 35 0 19 5 35 10 35 6 0 10 -13 10 -30 0 -24 5 -31 26
-36 18 -5 31 -1 42 11 10 10 11 15 5 11 -8 -5 -13 -1 -14 11 -3 65 -11 100
-26 111 -20 14 -61 15 -85 1z"/>
<path d="M1806 1263 c-3 -4 -24 -6 -45 -5 l-39 3 -4 -76 -3 -75 33 0 32 0 0
54 c0 64 7 86 26 86 11 0 14 -17 14 -70 l0 -70 30 0 c30 0 30 0 30 58 0 36 -6
66 -16 80 -15 21 -44 29 -58 15z"/>
<path d="M2058 1263 c-32 -8 -35 -63 -4 -63 20 0 40 27 26 35 -15 9 -12 25 5
25 10 0 15 -10 15 -34 0 -31 -3 -34 -34 -40 -38 -7 -51 -28 -36 -57 11 -20 54
-26 65 -9 3 6 1 10 -5 10 -15 0 -9 42 7 47 7 3 9 -3 6 -16 -3 -12 0 -28 7 -36
14 -17 56 -20 65 -5 3 6 1 10 -4 10 -7 0 -11 24 -11 60 0 48 -4 61 -19 70 -20
10 -52 11 -83 3z"/>
<path d="M2285 1260 c-3 -5 -2 -10 3 -10 5 0 8 -10 8 -22 -1 -33 38 -32 42 1
5 33 -37 57 -53 31z"/>
<path d="M2526 1258 c-23 -18 -17 -53 9 -53 16 0 20 6 18 28 -1 18 3 27 13 27
9 0 14 -11 14 -33 0 -30 -4 -34 -37 -43 -40 -10 -54 -34 -33 -59 14 -17 56
-20 65 -5 3 6 1 10 -4 10 -14 0 -14 37 -1 45 6 3 10 -4 10 -17 0 -13 5 -29 12
-36 15 -15 54 -16 63 -2 3 6 1 10 -4 10 -6 0 -11 22 -11 53 0 28 -4 58 -9 65
-12 20 -82 26 -105 10z"/>
<path d="M2766 1263 c-3 -4 -23 -6 -44 -5 l-37 3 0 -76 0 -75 28 0 c26 0 27 2
27 48 0 61 9 92 26 92 11 0 14 -17 14 -70 0 -70 0 -70 28 -70 27 0 27 0 26 65
-1 36 -7 72 -14 80 -13 16 -42 20 -54 8z"/>
<path d="M2852 1261 c-11 -7 -10 -10 3 -15 14 -5 16 -18 13 -71 l-3 -65 30 0
30 0 -3 67 c-2 38 -8 74 -14 81 -12 14 -37 16 -56 3z"/>
<path d="M1396 1238 c18 -60 54 -128 67 -128 8 0 20 14 26 31 13 38 14 49 2
30 -6 -9 -14 2 -26 38 -15 46 -19 51 -46 51 -27 0 -30 -3 -23 -22z"/>
<path d="M1509 1233 c-5 -14 -8 -30 -6 -36 1 -5 8 7 14 27 13 42 7 49 -8 9z"/>
<path d="M2208 1186 l-3 -76 35 0 35 0 -1 72 -2 73 -30 3 -30 3 -4 -75z"/>
<path d="M2376 1193 c14 -38 32 -74 41 -80 14 -11 19 -9 30 18 15 35 17 61 4
40 -6 -9 -13 2 -22 38 -12 48 -15 51 -45 51 l-33 0 25 -67z"/>
<path d="M2471 1229 c-6 -18 -9 -34 -7 -36 2 -2 9 10 15 28 6 18 9 34 7 36 -2
2 -9 -10 -15 -28z"/>
<path d="M2960 1185 l0 -75 43 1 c23 0 36 3 30 6 -9 3 -13 28 -13 74 l0 69
-30 0 -30 0 0 -75z"/>
<path d="M2340 1070 c0 -25 29 -38 41 -19 15 25 10 39 -16 39 -18 0 -25 -5
-25 -20z"/>
<path d="M2406 1062 l-19 -27 24 22 c12 12 21 24 18 27 -2 2 -13 -8 -23 -22z"/>
</g>
</svg>
